<svg width="30" height="30" viewBox="0 0 30 30" fill="none" xmlns="http://www.w3.org/2000/svg">
<g clip-path="url(#clip0_95_681)">
<path d="M9.61376 26.53L3.00001 28L4.47001 21.3862C3.50193 19.5755 2.99692 17.5533 3.00001 15.5C3.00001 8.59625 8.59626 3 15.5 3C22.4038 3 28 8.59625 28 15.5C28 22.4037 22.4038 28 15.5 28C13.4467 28.0031 11.4245 27.4981 9.61376 26.53Z" fill="#5956E9"/>
<path d="M15.248 21V13.752C15.248 13.5493 15.248 13.3307 15.248 13.096C15.2587 12.8613 15.2693 12.616 15.28 12.36C14.9173 12.712 14.5013 13.016 14.032 13.272C13.5627 13.5173 13.088 13.6933 12.608 13.8L12.288 12.312C12.5013 12.28 12.7573 12.2053 13.056 12.088C13.3653 11.9707 13.68 11.8213 14 11.64C14.32 11.4587 14.6133 11.2667 14.88 11.064C15.1467 10.8507 15.3547 10.6427 15.504 10.44H16.944V21H15.248Z" fill="white"/>
</g>
<defs>
<clipPath id="clip0_95_681">
<rect width="30" height="30" fill="white"/>
</clipPath>
</defs>
</svg>
