<svg width="52" height="46" viewBox="0 0 52 46" fill="none" xmlns="http://www.w3.org/2000/svg">
<rect width="52" height="46" rx="4" fill="#5956E9"/>
<g clip-path="url(#clip0_2_64)">
<path d="M17 24H23V22H17V12.846C17 12.7591 17.0227 12.6737 17.0657 12.5983C17.1088 12.5228 17.1708 12.4599 17.2456 12.4157C17.3204 12.3714 17.4054 12.3475 17.4923 12.3461C17.5791 12.3448 17.6649 12.3661 17.741 12.408L36.203 22.562C36.2814 22.6052 36.3468 22.6686 36.3923 22.7456C36.4378 22.8227 36.4618 22.9105 36.4618 23C36.4618 23.0895 36.4378 23.1773 36.3923 23.2544C36.3468 23.3314 36.2814 23.3948 36.203 23.438L17.741 33.592C17.6649 33.6339 17.5791 33.6552 17.4923 33.6539C17.4054 33.6525 17.3204 33.6286 17.2456 33.5843C17.1708 33.5401 17.1088 33.4772 17.0657 33.4017C17.0227 33.3263 17 33.2409 17 33.154V24Z" fill="white"/>
</g>
<defs>
<clipPath id="clip0_2_64">
<rect width="24" height="24" fill="white" transform="translate(14 11)"/>
</clipPath>
</defs>
</svg>
